<?xml version="1.0" encoding="utf-8" ?>
<svg xmlns="http://www.w3.org/2000/svg" xmlns:xlink="http://www.w3.org/1999/xlink" width="1006" height="1006">
	<path fill="#25A94C" transform="scale(0.982422 0.982422)" d="M819.592 600.668C824.521 600.363 829.791 601.28 834.115 603.708Q834.638 604.007 835.144 604.331Q835.651 604.656 836.141 605.006Q836.631 605.356 837.103 605.73Q837.574 606.104 838.026 606.501Q838.479 606.899 838.91 607.318Q839.342 607.738 839.751 608.179Q840.161 608.62 840.548 609.081Q840.935 609.542 841.299 610.022Q841.662 610.502 842.001 610.999Q842.339 611.497 842.653 612.011Q842.966 612.525 843.253 613.054Q843.54 613.583 843.799 614.126Q844.059 614.669 844.291 615.225Q844.523 615.78 844.727 616.347Q844.931 616.913 845.106 617.489Q845.281 618.065 845.427 618.649Q845.587 619.269 845.716 619.896Q845.844 620.523 845.941 621.156Q846.038 621.788 846.104 622.425Q846.169 623.062 846.202 623.701Q846.236 624.34 846.237 624.98Q846.238 625.62 846.207 626.26Q846.176 626.899 846.114 627.536Q846.051 628.173 845.956 628.806Q845.861 629.439 845.735 630.067Q845.609 630.694 845.451 631.315Q845.294 631.935 845.105 632.547Q844.917 633.158 844.698 633.76Q844.479 634.361 844.231 634.951Q843.982 635.541 843.704 636.118Q843.426 636.694 843.12 637.256Q842.813 637.818 842.479 638.364C838.443 644.867 832.206 648.064 824.976 649.707C819.13 650.001 813.526 649.186 808.472 645.991C803.025 642.548 799.296 636.842 797.967 630.573Q797.838 629.954 797.739 629.33Q797.641 628.706 797.574 628.078Q797.507 627.449 797.472 626.818Q797.436 626.187 797.432 625.555Q797.428 624.923 797.455 624.292Q797.483 623.661 797.542 623.031Q797.601 622.402 797.691 621.777Q797.781 621.151 797.903 620.531Q798.024 619.911 798.176 619.297Q798.328 618.684 798.511 618.079Q798.694 617.474 798.906 616.879Q799.119 616.284 799.361 615.7Q799.603 615.116 799.874 614.545Q800.144 613.974 800.443 613.417Q800.742 612.861 801.069 612.319Q801.395 611.778 801.748 611.254C806.044 604.955 812.273 601.918 819.592 600.668Z"/>
	<path fill="#25A94C" transform="scale(0.982422 0.982422)" d="M741.315 681.268C750.177 681.652 759.236 681.256 768.118 681.266L829.859 681.456C830.099 689.393 829.966 697.375 829.999 705.318C800.513 704.624 770.91 704.986 741.412 705.102C741.262 697.252 740.704 689.086 741.315 681.268Z"/>
	<path fill="#25A94C" transform="scale(0.982422 0.982422)" d="M654.06 723.413L830.479 723.504C830.659 730.731 831.901 739.519 828.395 746.077C826.363 747.373 824.401 747.617 822.058 747.788C804.311 749.081 785.887 748.159 768.092 748.053Q720.902 747.411 673.71 747.822C669.963 747.835 659.07 748.659 656.575 746.042C652.344 741.606 653.891 729.239 654.06 723.413Z"/>
	<path fill="#25A94C" transform="scale(0.982422 0.982422)" d="M906.526 529.873C914.802 529.089 923.597 529.761 931.915 529.871L931.936 624.508C931.965 650.919 934.669 679.457 928.141 705.28Q927.685 707.052 927.171 708.808Q926.657 710.564 926.086 712.301Q925.514 714.039 924.885 715.758Q924.257 717.476 923.572 719.172Q922.887 720.868 922.146 722.541Q921.406 724.214 920.61 725.862Q919.815 727.509 918.965 729.13Q918.116 730.75 917.213 732.341Q916.311 733.933 915.357 735.494Q914.402 737.054 913.397 738.583Q912.391 740.111 911.336 741.606Q910.281 743.1 909.177 744.559Q908.073 746.018 906.921 747.439Q905.769 748.861 904.571 750.244Q903.373 751.626 902.131 752.969Q900.888 754.311 899.601 755.612C885.922 769.347 867.991 779.332 851.863 789.963Q823.583 808.673 795.551 827.753C791.08 823.221 786.502 822.434 780.347 822.376C774.148 822.319 767.926 822.505 761.726 822.608Q761.476 794.072 761.575 765.536L804.754 765.538C813.004 765.582 822.117 766.693 830.209 765.007Q831.001 764.837 831.779 764.61Q832.556 764.383 833.316 764.101Q834.075 763.819 834.812 763.484Q835.55 763.148 836.261 762.76Q836.972 762.373 837.654 761.935Q838.336 761.498 838.984 761.012Q839.633 760.527 840.245 759.997Q840.857 759.466 841.43 758.893C849.779 750.642 849.466 736.685 849.324 725.76C849.013 701.753 849.321 677.745 848.919 653.741C857.095 645.632 863.028 637.299 863.005 625.324Q863 624.458 862.953 623.594Q862.905 622.73 862.816 621.87Q862.727 621.009 862.596 620.153Q862.465 619.298 862.292 618.45Q862.119 617.602 861.905 616.763Q861.691 615.925 861.437 615.098Q861.182 614.27 860.888 613.457Q860.593 612.643 860.26 611.844Q859.926 611.046 859.553 610.265Q859.181 609.483 858.771 608.721Q858.361 607.959 857.915 607.218Q857.468 606.477 856.986 605.758Q856.503 605.04 855.987 604.345Q855.47 603.651 854.92 602.983Q854.37 602.315 853.788 601.674Q853.206 601.033 852.594 600.422C851.321 599.16 849.94 597.996 848.576 596.836C848.122 587.946 848.389 579.055 848.009 570.178C857.641 564.786 866.771 557.661 875.826 551.324C886.023 544.187 896.574 537.334 906.526 529.873Z"/>
	<path transform="scale(0.982422 0.982422)" d="M79.5885 531.024Q100.96 530.719 122.332 531.022C132.856 540.505 145.581 548.078 157.158 556.266L230.338 607.701L409.695 732.339L466.396 771.849C476.536 779.05 486.418 786.714 496.682 793.721C500.256 796.16 503.606 798.263 507.96 798.893C510.809 797.984 513.384 796.618 515.918 795.048C524.308 789.85 532.261 783.814 540.436 778.276L586.551 747.445L616.832 727.113C623.38 722.755 630.863 718.68 636.533 713.195C636.295 726.996 633.313 747.484 643.849 758.008C647.343 761.499 651.795 763.681 656.585 764.741C665.231 766.654 675.028 765.573 683.87 765.527L718.861 765.532C718.947 784.631 719.203 803.806 718.843 822.9C710.869 822.798 690.134 821.498 683.564 823.175C682.092 823.551 680.908 824.289 679.841 825.359C677.979 827.227 676.845 829.468 676.905 832.138C676.948 834.045 677.553 835.868 679.07 837.117C680.941 838.656 683.527 839.177 685.875 839.408C695.98 840.403 706.72 839.228 716.884 839.152L778.497 839.053Q732.406 870.033 685.733 900.13C669.841 910.551 654.168 921.531 638.017 931.518C628.979 936.863 620.245 942.961 611.49 948.76L574.846 973.054C561.845 981.83 548.751 991.889 534.125 997.805C523.626 1002.05 511.585 1004.21 500.289 1004.51C482.623 1004.99 464.044 1001.48 448.27 993.342C431.848 984.871 416.947 972.464 401.884 961.788L316.432 901.377L174.409 802.652L142.767 780.478C132.882 773.612 122.617 766.947 113.876 758.618Q112.538 757.345 111.244 756.028Q109.95 754.71 108.702 753.349Q107.454 751.988 106.252 750.586Q105.051 749.183 103.898 747.74Q102.745 746.297 101.642 744.816Q100.539 743.335 99.4871 741.818Q98.4351 740.3 97.4354 738.747Q96.4356 737.194 95.4893 735.608Q94.543 734.023 93.6512 732.406Q92.7594 730.788 91.9232 729.142Q91.087 727.495 90.3073 725.821Q89.5276 724.147 88.8053 722.448Q88.083 720.748 87.419 719.025Q86.755 717.302 86.1501 715.557Q85.5451 713.812 84.9999 712.047Q84.4547 710.283 83.9698 708.501C77.9348 686.016 79.873 662.159 79.8724 639.096C79.8716 607.433 80.5598 575.578 79.6785 543.932L79.5885 531.024ZM373.141 789.718C355.703 791.316 339.751 798.025 328.32 811.691Q327.387 812.812 326.509 813.977Q325.632 815.141 324.812 816.348Q323.993 817.554 323.234 818.8Q322.474 820.045 321.777 821.326Q321.08 822.607 320.446 823.92Q319.812 825.234 319.243 826.577Q318.675 827.92 318.172 829.289Q317.67 830.658 317.236 832.05Q316.801 833.443 316.435 834.854Q316.069 836.266 315.773 837.694Q315.477 839.122 315.25 840.563Q315.024 842.004 314.869 843.454Q314.714 844.904 314.63 846.36Q314.546 847.816 314.534 849.274Q314.521 850.733 314.58 852.19Q314.639 853.647 314.769 855.1Q314.91 856.581 315.125 858.053Q315.341 859.525 315.629 860.984Q315.918 862.443 316.28 863.886Q316.641 865.329 317.075 866.753Q317.508 868.176 318.012 869.575Q318.517 870.975 319.09 872.347Q319.664 873.72 320.306 875.062Q320.948 876.404 321.656 877.712Q322.365 879.02 323.138 880.291Q323.911 881.562 324.747 882.792Q325.583 884.023 326.479 885.21Q327.376 886.397 328.331 887.538Q329.286 888.678 330.297 889.77Q331.308 890.861 332.372 891.9Q333.437 892.939 334.552 893.924Q335.667 894.909 336.83 895.836C348.18 904.989 362.811 909.625 377.305 909.607C392.075 909.484 407.913 902.179 418.261 891.759Q419.311 890.702 420.308 889.595Q421.304 888.487 422.245 887.332Q423.185 886.176 424.067 884.976Q424.949 883.775 425.771 882.532Q426.592 881.289 427.351 880.007Q428.11 878.725 428.805 877.407Q429.499 876.089 430.128 874.738Q430.756 873.388 431.317 872.007Q431.877 870.627 432.369 869.221Q432.86 867.814 433.282 866.385Q433.703 864.956 434.053 863.508Q434.403 862.06 434.681 860.596Q434.958 859.132 435.163 857.657Q435.368 856.181 435.5 854.697Q435.631 853.213 435.689 851.724Q435.747 850.236 435.731 848.746C435.6 832.604 428.986 818.099 417.424 806.921C406.164 796.036 390.524 789.331 374.745 789.632C374.21 789.643 373.674 789.673 373.141 789.718ZM278.628 710.856Q256.563 740.32 235.479 770.494C227.301 782.03 218.536 793.271 211.184 805.362C219.773 811.217 228.476 817.119 236.697 823.478C240.47 817.678 257.332 791.53 262.313 790.031C263.035 789.814 263.185 790.13 263.766 790.489C264.874 794.433 262.392 824.697 261.572 830.876L261.005 840.546C271.341 847.602 282.753 854.393 292.417 862.305Q292.88 843.502 293.866 824.719C294.167 818.939 294.216 812.981 294.969 807.252C305.358 807.67 314.817 805.879 322.718 798.686C329.939 792.112 334.158 782.552 334.588 772.832Q334.63 771.888 334.624 770.943Q334.619 769.997 334.566 769.054Q334.513 768.11 334.414 767.17Q334.314 766.23 334.168 765.297Q334.021 764.363 333.829 763.438Q333.636 762.512 333.397 761.598Q333.159 760.683 332.875 759.782Q332.591 758.881 332.262 757.994Q331.934 757.108 331.561 756.24Q331.189 755.371 330.774 754.522Q330.358 753.673 329.901 752.845Q329.444 752.018 328.947 751.215Q328.449 750.411 327.912 749.634Q327.375 748.856 326.799 748.106Q326.224 747.356 325.612 746.636Q325 745.916 324.353 745.227C316.425 736.757 306 730.119 296.561 723.46C290.605 719.258 284.748 714.813 278.628 710.856ZM188.674 649.842C173.6 669.017 159.621 689.467 145.538 709.391C137.142 721.269 127.715 733.174 120.231 745.61C127.929 750.372 139.571 759.726 146.94 765.536C153.472 755.652 160.699 746.39 167.58 736.771L170.255 733.622C182.807 742.636 195.985 754.056 212.559 751.235C222.832 749.487 231.483 742.754 237.312 734.323C243.398 725.519 246.767 714.007 244.748 703.348C243.675 697.682 241.274 692.532 237.744 687.987C228.67 676.306 201.767 658.613 188.674 649.842Z"/>
	<path transform="scale(0.982422 0.982422)" d="M199.587 691.833C201.847 692.459 204.187 694.246 205.845 695.875C208.707 698.688 210.234 702.74 210.238 706.726C210.242 710.693 208.766 714.754 205.912 717.56C202.956 720.465 199.923 721.065 195.907 721.035C191.169 719.382 187.469 716.904 183.434 713.956Q191.044 702.554 199.587 691.833Z"/>
	<path transform="scale(0.982422 0.982422)" d="M289.329 749.257C292.23 750.231 295.059 752.611 296.832 755.069Q297.361 755.815 297.812 756.609Q298.263 757.404 298.633 758.24Q299.003 759.076 299.288 759.944Q299.572 760.813 299.769 761.705Q299.965 762.598 300.071 763.506Q300.177 764.413 300.192 765.327Q300.207 766.241 300.131 767.152Q300.055 768.062 299.888 768.961C299.242 772.453 297.502 775.91 294.499 777.936C291.686 779.834 288.401 780.187 285.132 779.59C280.53 777.875 276.724 774.916 272.512 772.478Q280.485 760.552 289.329 749.257Z"/>
	<path transform="scale(0.982422 0.982422)" d="M371.763 821.064C377.846 820.243 384.122 821.757 389.338 824.932C395.994 828.982 400.584 835.798 402.291 843.35Q402.458 844.08 402.589 844.818Q402.72 845.555 402.813 846.298Q402.907 847.042 402.963 847.789Q403.019 848.536 403.038 849.284Q403.057 850.033 403.039 850.782Q403.02 851.531 402.964 852.278Q402.908 853.025 402.815 853.768Q402.722 854.511 402.592 855.249Q402.461 855.986 402.294 856.717Q402.127 857.447 401.924 858.168Q401.721 858.889 401.482 859.599Q401.243 860.309 400.969 861.006Q400.694 861.703 400.386 862.385Q400.077 863.068 399.734 863.734Q399.392 864.4 399.017 865.048Q398.641 865.696 398.234 866.325C393.922 872.927 387.585 876.525 380.007 878.049Q378.793 878.192 377.57 878.236Q376.348 878.279 375.127 878.222Q373.905 878.165 372.693 878.007Q371.48 877.85 370.284 877.594Q369.088 877.338 367.918 876.984Q366.747 876.631 365.609 876.183Q364.471 875.735 363.374 875.195Q362.277 874.654 361.228 874.026Q360.621 873.666 360.033 873.277Q359.446 872.887 358.878 872.468Q358.31 872.05 357.765 871.603Q357.219 871.157 356.696 870.683Q356.173 870.21 355.675 869.711Q355.177 869.212 354.704 868.688Q354.232 868.165 353.786 867.618Q353.34 867.072 352.922 866.504Q352.504 865.935 352.116 865.347Q351.727 864.759 351.368 864.151Q351.009 863.544 350.682 862.92Q350.354 862.295 350.058 861.655Q349.762 861.015 349.498 860.361Q349.234 859.707 349.004 859.04Q348.774 858.374 348.577 857.696Q348.38 857.019 348.218 856.333Q348.05 855.614 347.918 854.887Q347.786 854.16 347.69 853.428Q347.595 852.696 347.536 851.96Q347.477 851.223 347.455 850.485Q347.433 849.747 347.447 849.008Q347.462 848.27 347.513 847.533Q347.565 846.796 347.653 846.063Q347.741 845.33 347.866 844.602Q347.99 843.874 348.151 843.153Q348.311 842.432 348.508 841.72Q348.704 841.008 348.936 840.307Q349.168 839.605 349.434 838.917Q349.7 838.228 350.001 837.553Q350.301 836.878 350.635 836.219Q350.968 835.56 351.334 834.919Q351.7 834.277 352.098 833.655C356.757 826.516 363.644 822.871 371.763 821.064Z"/>
	<path fill="#25A94C" transform="scale(0.982422 0.982422)" d="M79.5885 531.024Q100.96 530.719 122.332 531.022C132.856 540.505 145.581 548.078 157.158 556.266L230.338 607.701L409.695 732.339L466.396 771.849C476.536 779.05 486.418 786.714 496.682 793.721C500.256 796.16 503.606 798.263 507.96 798.893C510.809 797.984 513.384 796.618 515.918 795.048C524.308 789.85 532.261 783.814 540.436 778.276L586.551 747.445L616.832 727.113C623.38 722.755 630.863 718.68 636.533 713.195C636.295 726.996 633.313 747.484 643.849 758.008C647.343 761.499 651.795 763.681 656.585 764.741C665.231 766.654 675.028 765.573 683.87 765.527L718.861 765.532C718.947 784.631 719.203 803.806 718.843 822.9C710.869 822.798 690.134 821.498 683.564 823.175C682.092 823.551 680.908 824.289 679.841 825.359C677.979 827.227 676.845 829.468 676.905 832.138C676.948 834.045 677.553 835.868 679.07 837.117C680.941 838.656 683.527 839.177 685.875 839.408C695.98 840.403 706.72 839.228 716.884 839.152L778.497 839.053Q732.406 870.033 685.733 900.13C669.841 910.551 654.168 921.531 638.017 931.518C631.243 926.176 623.785 921.446 616.701 916.512Q595.78 901.848 574.642 887.498L462.404 810.183L164.018 602.188L105.497 561.394C100.703 558.052 84.0068 545.234 79.6785 543.932L79.5885 531.024Z"/>
	<path transform="scale(0.982422 0.982422)" d="M505.787 28.6991C508.822 28.1022 512.62 28.3165 515.731 28.368Q518.481 28.4239 521.223 28.6417Q523.965 28.8595 526.689 29.2384Q529.413 29.6173 532.11 30.156Q534.807 30.6948 537.468 31.3914Q540.129 32.0881 542.744 32.9402Q545.359 33.7924 547.92 34.7971Q550.48 35.8018 552.977 36.9556Q555.474 38.1094 557.898 39.4083C566.775 44.2117 574.92 50.3732 583.189 56.1361Q599.333 67.1767 615.332 78.4267Q668.5 114.829 721.084 152.073Q780.218 192.744 838.766 234.254C857.91 247.631 884.055 262.739 899.947 279.221Q902.453 281.84 904.786 284.613Q907.119 287.386 909.27 290.303Q911.422 293.22 913.382 296.268Q915.343 299.316 917.105 302.484Q918.867 305.651 920.423 308.924Q921.979 312.197 923.323 315.563Q924.666 318.929 925.792 322.374Q926.918 325.819 927.822 329.329C933.511 352.181 931.222 380.094 931.153 403.678C931.094 423.81 931.439 443.987 931.085 464.11C903.986 446.968 877.869 428.031 851.241 410.168L641.252 268.682L575.516 224.509C564.09 216.775 552.995 207.836 540.759 201.442C529.058 195.328 518.16 193.116 505.067 192.772C493.373 193.66 482.31 196.505 471.965 202.127C457.307 210.093 441.623 222.55 427.456 232.035L327.627 299.354C293.226 322.974 258.17 345.696 223.541 368.988Q152.062 417.392 79.9977 464.922L79.9399 394.968C79.8312 375.128 78.1483 354.218 82.2355 334.686Q82.8865 331.593 83.7176 328.544Q84.5487 325.495 85.557 322.5Q86.5653 319.504 87.7473 316.573Q88.9294 313.642 90.2811 310.785Q91.6328 307.929 93.1495 305.156Q94.6662 302.383 96.3428 299.704Q98.0194 297.025 99.85 294.449Q101.681 291.873 103.659 289.408Q108.076 283.995 113.128 279.171Q118.18 274.346 123.791 270.184C133.85 262.61 144.518 255.821 154.997 248.845L199.989 218.792Q266.96 173.03 334.752 128.49L423.169 69.1898C437.395 59.6637 453.673 47.5657 468.424 39.5562C480.332 33.0908 492.386 30.087 505.787 28.6991ZM287.748 196.665C274.141 198.683 260.777 204.732 252.417 216.013Q251.823 216.805 251.27 217.626Q250.717 218.447 250.206 219.295Q249.695 220.143 249.227 221.016Q248.76 221.889 248.337 222.784Q247.914 223.679 247.537 224.595Q247.16 225.51 246.83 226.444Q246.499 227.377 246.217 228.326Q245.934 229.275 245.7 230.237Q245.465 231.199 245.28 232.171Q245.094 233.144 244.958 234.124Q244.822 235.105 244.735 236.091Q244.649 237.078 244.613 238.067Q244.576 239.056 244.59 240.046Q244.603 241.036 244.667 242.024Q244.73 243.012 244.844 243.996Q244.957 244.979 245.12 245.956C247.212 259.158 254.2 273.184 265.245 281.082C273.907 287.277 283.122 289.341 293.625 288.535C305.227 287.561 317.53 280.679 325.023 271.883Q325.718 271.078 326.372 270.24Q327.026 269.402 327.638 268.533Q328.25 267.664 328.819 266.765Q329.387 265.867 329.91 264.941Q330.433 264.016 330.91 263.066Q331.387 262.115 331.816 261.143Q332.245 260.17 332.625 259.177Q333.006 258.185 333.337 257.174Q333.668 256.164 333.948 255.138Q334.229 254.113 334.458 253.075Q334.688 252.037 334.865 250.989Q335.043 249.94 335.169 248.885Q335.295 247.829 335.368 246.769Q335.441 245.708 335.462 244.645Q335.483 243.582 335.451 242.519Q335.419 241.457 335.335 240.397C334.248 227.685 327.571 214.813 317.756 206.654C309.482 199.775 298.556 195.826 287.748 196.665ZM390.325 124.185Q379.066 130.73 368.492 138.333C373.068 154.221 377.999 170.013 381.55 186.175L358.09 165.608C353.915 161.935 349.469 158.397 345.532 154.481L324.759 167.625Q339.571 208.679 356.772 248.79L378.206 235.449C372.648 222.099 366.041 209.15 360.273 195.872L357.025 188.843C370.708 199.821 384.175 211.934 396.792 224.101C399.986 221.843 403.163 219.556 406.382 217.334C402.874 197.611 397.195 178.229 392.231 158.829C402.527 174.757 413.313 190.338 423.479 206.358C430.637 201.673 437.91 197.048 444.537 191.621L409.546 147.511C404.714 141.384 396.047 128.176 390.325 124.185ZM747.991 202.391C738.856 214.863 730.481 227.858 721.958 240.752Q710.523 257.701 699.481 274.909C705.358 280.054 712.364 284.283 718.842 288.649C723.356 279.56 729.251 269.985 735.858 262.268L739.103 265.463C738.471 274.451 737.353 283.4 736.592 292.378L736.072 299.474Q747.419 307.962 759.313 315.665C759.57 302.951 758.633 285.477 760.535 273.342C768.058 273.682 774.364 272.924 780.275 267.727C785.677 262.979 789.458 255.345 789.864 248.196Q789.906 247.524 789.914 246.851Q789.922 246.178 789.895 245.505Q789.869 244.832 789.808 244.161Q789.747 243.491 789.651 242.824Q789.556 242.158 789.427 241.497Q789.298 240.836 789.135 240.183Q788.972 239.53 788.776 238.886Q788.579 238.241 788.35 237.608Q788.122 236.975 787.861 236.354Q787.6 235.734 787.307 235.127Q787.015 234.521 786.692 233.93Q786.368 233.339 786.015 232.766Q785.663 232.193 785.281 231.638Q784.899 231.083 784.489 230.549Q784.079 230.015 783.643 229.502Q783.206 228.99 782.744 228.5C773.873 218.948 758.929 209.881 747.991 202.391ZM527.026 75.7994C520.486 94.2478 505.585 121.95 505.801 141.29Q505.815 142.714 505.991 144.128Q506.166 145.541 506.5 146.926Q506.834 148.311 507.323 149.649Q507.811 150.987 508.448 152.261C513.318 162.196 523.927 168.547 534.112 171.863C543.294 174.852 553.328 175.624 562.203 171.2C580.64 162.009 583.882 131.381 591.427 113.904L596.176 100.158L572.958 92.5124C569.531 103.28 565.608 113.914 561.837 124.567C559.49 131.196 557.478 138.582 554.089 144.737C552.911 146.875 551.739 148.6 549.526 149.756Q548.962 150.045 548.372 150.273Q547.781 150.502 547.17 150.668Q546.558 150.834 545.933 150.935Q545.308 151.036 544.676 151.072Q544.043 151.108 543.411 151.077Q542.778 151.047 542.152 150.951Q541.526 150.855 540.913 150.694Q540.301 150.534 539.708 150.31C536.295 149.031 532.583 146.976 531.176 143.41C528.108 135.635 545.766 93.1889 549.433 83.4892C542.057 80.71 534.313 78.7047 527.026 75.7994ZM465.016 86.175C451.053 87.7586 432.251 99.5347 420.461 107.401C423.29 116.411 428.305 125.063 432.024 133.765C439.504 151.27 446.314 169.44 455.082 186.351L458.137 184.544C464.371 181.038 470.693 177.626 476.743 173.81C472.867 165.512 468.545 157.122 465.289 148.569C476.226 141.175 489.904 136.154 492.741 121.533C494.374 113.114 491.938 104.154 487.01 97.2273C483.245 91.9353 477.777 87.6338 471.258 86.4783C469.176 86.1094 467.119 86.0477 465.016 86.175ZM688.871 161.341C676.656 177.784 665.334 195.165 654.012 212.251C649.344 219.294 645.007 226.94 639.89 233.644C655.213 244.115 670.47 254.562 685.279 265.761C689.1 260.035 692.543 254.03 696.488 248.397C688.228 242.37 679.556 236.974 671.366 230.833C672.548 229 673.689 227.122 674.926 225.328L678.907 219.543C687.024 223.443 694.195 229.439 701.815 234.22C705.411 229.02 709.158 223.873 712.6 218.573L689.82 202.409C691.886 198.746 694.298 195.363 696.727 191.937C706.049 197.105 714.583 203.298 723.359 209.308Q729.33 201.33 734.985 193.125C719.636 182.494 704.085 172.17 688.871 161.341ZM215.719 241.992C200.007 251.186 184.914 260.312 179.904 279.028C176.814 290.573 178.161 302.904 184.285 313.247C190.333 323.461 200.781 331.716 212.376 334.541C224.329 337.454 235.761 334.02 245.974 327.675C250.59 324.807 255.024 321.383 258.841 317.507C261.683 314.491 264.289 311.36 266.865 308.116C259.983 302.12 253.117 295.564 247.502 288.355C244.175 297.224 240.04 305.379 231.037 309.656C226.44 311.84 221.218 312.184 216.466 310.265C210.799 307.976 206.482 302.852 204.347 297.217C202.263 291.713 202.193 285.438 204.648 280.038C207.462 273.846 213.075 269.661 219.385 267.472C222.346 266.444 225.513 265.9 228.579 265.273C226.681 262.259 216.688 242.534 215.719 241.992ZM621.726 114.934C617.747 120.436 613.377 125.83 609.661 131.498C615.725 135.832 622.365 139.988 627.979 144.876C615.2 163.427 602.102 181.648 590.281 200.843Q599.958 207.427 609.801 213.76C614.074 207.311 618.145 200.536 622.716 194.308L638.575 170.553C641.516 166.147 644.33 161.45 647.574 157.273C654.23 160.946 660.468 165.696 666.645 170.125C670.681 164.876 674.55 159.345 678.813 154.29Q661.215 141.86 643.441 129.684C636.235 124.779 628.737 120.102 621.726 114.934Z"/>
	<path transform="scale(0.982422 0.982422)" d="M458.325 108.979C459.716 108.904 461.073 108.87 462.454 109.092C464.576 109.433 466.934 110.423 468.08 112.351C469.104 114.073 469.097 116.314 468.635 118.203C467.406 123.235 463.648 125.773 459.505 128.262C458.251 128.764 458.075 128.89 456.77 128.624C452.848 125.399 451.094 119.14 449.523 114.472C452.384 112.444 455.248 110.66 458.325 108.979Z"/>
	<path transform="scale(0.982422 0.982422)" d="M756.546 231.532C760.364 234.176 764.055 237.494 765.562 242.036C766.269 244.166 766.422 246.662 765.263 248.668C763.608 251.534 760.503 252.261 757.509 252.964C753.245 251.743 749.707 249.432 746.296 246.678C749.82 241.709 753.053 236.528 756.546 231.532Z"/>
	<path transform="scale(0.982422 0.982422)" d="M286.119 220.077C289.683 219.699 293.309 220.348 296.61 221.702C302.43 224.09 306.823 228.795 309.07 234.643C311.33 240.527 311.698 247.371 309.043 253.187C306.025 259.8 300.5 263.377 293.882 265.704Q293.006 265.832 292.122 265.886Q291.238 265.94 290.352 265.92Q289.467 265.9 288.586 265.807Q287.705 265.714 286.836 265.547Q285.966 265.38 285.113 265.142Q284.26 264.903 283.43 264.594Q282.6 264.285 281.799 263.908Q280.997 263.531 280.23 263.089C274.609 259.824 270.849 253.944 269.257 247.736C267.698 241.655 268.106 234.949 271.499 229.541C274.931 224.071 280.071 221.573 286.119 220.077Z"/>
	<path transform="scale(0.982422 0.982422)" d="M91.499 495.182C134.132 467.204 176.21 438.267 218.492 409.753L373.22 306L448.206 255.793C460.579 247.432 472.582 238.114 485.331 230.372C490.466 227.254 495.834 224.607 501.801 223.578Q503.197 223.333 504.608 223.204Q506.019 223.075 507.437 223.063Q508.854 223.051 510.267 223.156Q511.68 223.261 513.08 223.482Q514.48 223.704 515.857 224.04Q517.234 224.376 518.578 224.824Q519.922 225.273 521.225 225.831Q522.528 226.389 523.78 227.053C534.418 232.655 544.048 240.766 554.078 247.411L641.782 306.65Q728.702 364.364 814.874 423.188C850.321 447.152 886.259 470.658 921.087 495.502Q878.085 496.209 835.081 495.67C817.367 495.526 798.791 494.228 781.212 496.255C779.319 505.477 780.191 518.989 781.506 528.254C792.867 530.67 813.804 529.354 826.126 529.377Q866.328 529.314 906.526 529.873C896.574 537.334 886.023 544.187 875.826 551.324C866.771 557.661 857.641 564.786 848.009 570.178C841.17 574.196 834.753 578.975 828.124 583.335C807.072 597.182 786.393 611.599 765.47 625.645Q721.8 654.887 678.487 684.652C665.418 693.48 651.689 701.739 638.892 710.898C637.977 711.553 637.16 712.26 636.533 713.195C630.863 718.68 623.38 722.755 616.832 727.113L586.551 747.445L540.436 778.276C532.261 783.814 524.308 789.85 515.918 795.048C513.384 796.618 510.809 797.984 507.96 798.893C503.606 798.263 500.256 796.16 496.682 793.721C486.418 786.714 476.536 779.05 466.396 771.849L409.695 732.339L230.338 607.701L157.158 556.266C145.581 548.078 132.856 540.505 122.332 531.022C158.858 530.208 195.529 531.044 232.074 530.965Q232.238 513.234 232.081 495.502C216.845 494.034 198.251 494.968 182.653 494.97L91.499 495.182ZM526.981 374.159C525.57 390.429 526.384 407.208 526.394 423.547L526.352 503.089L526.504 598.818C526.519 618.324 526.06 637.859 527.046 657.344L561.854 657.415C568.683 657.424 575.739 657.757 582.534 657.123L582.664 590.841C582.712 579.74 582.477 568.618 582.871 557.524L660.057 557.264C691.586 556.747 710.588 554.566 733.53 530.814Q734.332 529.978 735.114 529.122Q735.896 528.266 736.656 527.391Q737.417 526.516 738.155 525.623Q738.894 524.729 739.611 523.818Q740.327 522.907 741.021 521.979Q741.715 521.05 742.387 520.105Q743.058 519.16 743.705 518.199Q744.353 517.238 744.977 516.261Q745.601 515.284 746.201 514.292Q746.801 513.3 747.376 512.294Q747.951 511.288 748.502 510.267Q749.052 509.247 749.578 508.214Q750.103 507.181 750.603 506.135Q751.102 505.089 751.576 504.031Q752.051 502.974 752.498 501.904Q752.946 500.835 753.368 499.755Q753.79 498.676 754.185 497.586Q754.58 496.496 754.948 495.397Q755.316 494.298 755.657 493.19Q755.998 492.082 756.312 490.966Q756.626 489.851 756.912 488.727Q757.199 487.604 757.457 486.474Q757.716 485.344 757.947 484.208Q758.178 483.073 758.381 481.931Q758.584 480.79 758.759 479.644Q758.934 478.498 759.081 477.349Q759.228 476.199 759.347 475.046Q759.465 473.893 759.556 472.737Q759.646 471.582 759.708 470.424Q759.77 469.267 759.803 468.108Q759.837 466.949 759.842 465.79Q759.847 464.631 759.824 463.472C759.372 438.135 749.3 415.174 730.995 397.688C720.845 387.993 707.804 380.018 694.061 376.725C680.81 373.55 666.804 374.084 653.268 374.077L618.029 374.071C587.702 374.072 557.298 373.646 526.981 374.159ZM410.615 369.711C367.802 373.035 327.612 387.018 298.852 420.466C274.344 448.971 262.835 487.876 265.741 525.145Q265.882 526.858 266.065 528.566Q266.248 530.275 266.472 531.978Q266.697 533.682 266.964 535.38Q267.231 537.077 267.539 538.768Q267.848 540.458 268.198 542.14Q268.548 543.823 268.94 545.496Q269.331 547.169 269.763 548.832Q270.196 550.495 270.669 552.147Q271.142 553.799 271.656 555.439Q272.17 557.078 272.724 558.705Q273.278 560.332 273.872 561.944Q274.466 563.557 275.1 565.154Q275.733 566.751 276.406 568.333Q277.078 569.914 277.79 571.478Q278.501 573.042 279.251 574.588Q280.001 576.135 280.788 577.662Q281.576 579.189 282.401 580.697Q283.225 582.204 284.087 583.691Q284.949 585.177 285.847 586.642Q286.745 588.107 287.679 589.55Q288.613 590.992 289.582 592.411Q290.551 593.83 291.555 595.225Q292.559 596.619 293.597 597.989Q294.635 599.359 295.706 600.702Q296.777 602.046 297.882 603.362Q298.986 604.679 300.122 605.968Q301.258 607.258 302.425 608.518Q303.593 609.779 304.791 611.011Q305.989 612.243 307.218 613.444Q308.446 614.646 309.703 615.817Q310.961 616.988 312.247 618.128Q313.532 619.268 314.846 620.376C347.245 647.883 389.46 657.926 431.154 654.396C453.986 652.463 475.201 644.507 495.394 634.028C495.406 615.558 495.702 597.024 495.054 578.564L494.566 578.648L494.694 577.58L495.033 578.146L494.774 577.078L492.561 577.909C484.802 582.538 477.204 587.611 469.041 591.498C444.878 603.004 415.373 606.432 389.338 599.952C365.381 593.99 345.327 579.524 332.718 558.227C320.624 537.799 317.774 511.778 323.67 488.897Q323.927 487.876 324.209 486.862Q324.491 485.848 324.798 484.841Q325.105 483.834 325.437 482.835Q325.769 481.836 326.126 480.846Q326.483 479.855 326.864 478.874Q327.245 477.893 327.651 476.921Q328.056 475.95 328.486 474.989Q328.915 474.028 329.369 473.078Q329.822 472.127 330.298 471.189Q330.775 470.25 331.275 469.324Q331.775 468.397 332.297 467.483Q332.82 466.57 333.365 465.669Q333.91 464.769 334.478 463.882Q335.045 462.995 335.634 462.123Q336.224 461.25 336.834 460.393Q337.445 459.536 338.077 458.694Q338.709 457.851 339.361 457.025Q340.014 456.199 340.686 455.39Q341.359 454.58 342.052 453.787Q342.745 452.995 343.457 452.219Q344.169 451.444 344.9 450.687Q345.631 449.93 346.381 449.191Q347.131 448.452 347.899 447.732Q348.667 447.012 349.452 446.311Q350.238 445.61 351.04 444.929Q351.843 444.248 352.662 443.587Q353.482 442.926 354.317 442.285Q355.152 441.645 356.004 441.026Q356.855 440.406 357.721 439.808Q358.587 439.21 359.468 438.633Q360.349 438.057 361.244 437.502Q362.139 436.948 363.047 436.416C388.43 421.467 421.162 420.154 449.138 427.604C465.271 431.901 481.35 439.586 495.109 449.062C495.615 439.232 495.404 429.333 495.415 419.491C495.426 409.497 495.645 399.454 495.408 389.465C473.664 379.433 451.245 371.825 427.244 369.872C421.955 369.442 415.901 369.022 410.615 369.711Z"/>
	<path transform="scale(0.982422 0.982422)" d="M648.417 429.279C652.3 428.967 656.248 428.975 660.144 428.939C672.841 428.818 685.674 429.745 695.139 439.177Q695.796 439.83 696.419 440.515Q697.043 441.2 697.631 441.916Q698.219 442.631 698.771 443.375Q699.323 444.119 699.837 444.89Q700.35 445.661 700.825 446.456Q701.299 447.252 701.734 448.07Q702.168 448.889 702.56 449.728Q702.953 450.567 703.303 451.424Q703.653 452.282 703.96 453.156Q704.266 454.03 704.529 454.918Q704.792 455.807 705.009 456.707Q705.227 457.607 705.399 458.517Q705.572 459.427 705.698 460.345Q705.825 461.263 705.905 462.186Q705.986 463.108 706.02 464.034Q706.054 464.96 706.042 465.886C705.988 476.031 701.64 487.371 694.285 494.474C681.266 507.048 657.697 503.272 641.121 503.074L582.528 503.084L582.47 456.665C582.435 447.742 581.838 438.366 582.815 429.504C604.672 429.436 626.566 429.675 648.417 429.279Z"/>
</svg>
